<svg width="20" height="20" viewBox="0 0 20 20" fill="none" xmlns="http://www.w3.org/2000/svg">
<path fill-rule="evenodd" clip-rule="evenodd" d="M13 1.66666C12.6463 1.66666 12.3072 1.80713 12.0571 2.05718C11.8071 2.30723 11.6666 2.64637 11.6666 2.99999V6.66666H7.99996C7.64634 6.66666 7.3072 6.80713 7.05715 7.05718C6.8071 7.30723 6.66663 7.64637 6.66663 7.99999V12.5H2.99996C2.64634 12.5 2.3072 12.6405 2.05715 12.8905C1.8071 13.1406 1.66663 13.4797 1.66663 13.8333V17C1.66663 17.3536 1.8071 17.6927 2.05715 17.9428C2.3072 18.1928 2.64634 18.3333 2.99996 18.3333H17C17.3536 18.3333 17.6927 18.1928 17.9428 17.9428C18.1928 17.6927 18.3333 17.3536 18.3333 17V2.99999C18.3333 2.64637 18.1928 2.30723 17.9428 2.05718C17.6927 1.80713 17.3536 1.66666 17 1.66666H13ZM8.33329 8.33332H11.6666V16.6667H8.33329V8.33332ZM16.6666 16.6667H13.3333V3.33332H16.6666V16.6667ZM6.66663 14.1667V16.6667H3.33329V14.1667H6.66663Z" fill="#8A8C91"/>
</svg>
